<?xml version="1.0" encoding="UTF-8"?>
<svg id="Ebene_1" data-name="Ebene 1" xmlns="http://www.w3.org/2000/svg" xmlns:xlink="http://www.w3.org/1999/xlink" viewBox="0 0 566.93 566.93">
  <defs>
    <style>
      .cls-1 {
        fill: url(#Unbenannter_Verlauf_169);
      }

      .cls-1, .cls-2, .cls-3, .cls-4, .cls-5, .cls-6, .cls-7, .cls-8, .cls-9, .cls-10 {
        stroke-width: 0px;
      }

      .cls-2 {
        fill: url(#Unbenannter_Verlauf_339-3);
      }

      .cls-3 {
        fill: url(#Unbenannter_Verlauf_339);
      }

      .cls-4 {
        fill: #3a201a;
      }

      .cls-6 {
        fill: url(#Unbenannter_Verlauf_146);
      }

      .cls-7 {
        fill: #fafafa;
      }

      .cls-8 {
        fill: url(#Unbenannter_Verlauf_339-4);
      }

      .cls-9 {
        fill: url(#Unbenannter_Verlauf_339-2);
      }

      .cls-10 {
        fill: url(#Unbenannter_Verlauf_157);
      }
    </style>
    <linearGradient id="Unbenannter_Verlauf_157" data-name="Unbenannter Verlauf 157" x1="277.18" y1="224.08" x2="277.18" y2="333.8" gradientUnits="userSpaceOnUse">
      <stop offset="0" stop-color="#fe0"/>
      <stop offset="1" stop-color="#e95b18"/>
    </linearGradient>
    <linearGradient id="Unbenannter_Verlauf_169" data-name="Unbenannter Verlauf 169" x1="228.48" y1="191.29" x2="228.48" y2="251.8" gradientUnits="userSpaceOnUse">
      <stop offset="0" stop-color="#fe0"/>
      <stop offset="1" stop-color="#e95b18"/>
    </linearGradient>
    <linearGradient id="Unbenannter_Verlauf_339" data-name="Unbenannter Verlauf 339" x1="366.8" y1="259.97" x2="366.8" y2="300.69" gradientUnits="userSpaceOnUse">
      <stop offset="0" stop-color="#ec671f"/>
      <stop offset="1" stop-color="#a0140e"/>
    </linearGradient>
    <linearGradient id="Unbenannter_Verlauf_339-2" data-name="Unbenannter Verlauf 339" x1="423.88" y1="274.13" x2="423.88" y2="314.94" xlink:href="#Unbenannter_Verlauf_339"/>
    <linearGradient id="Unbenannter_Verlauf_339-3" data-name="Unbenannter Verlauf 339" x1="392.82" y1="144.16" x2="392.82" y2="244.5" xlink:href="#Unbenannter_Verlauf_339"/>
    <linearGradient id="Unbenannter_Verlauf_339-4" data-name="Unbenannter Verlauf 339" x1="465.57" y1="139.06" x2="465.57" y2="257.8" xlink:href="#Unbenannter_Verlauf_339"/>
    <linearGradient id="Unbenannter_Verlauf_146" data-name="Unbenannter Verlauf 146" x1="109.95" y1="143.9" x2="109.95" y2="310.62" gradientUnits="userSpaceOnUse">
      <stop offset="0" stop-color="#0087cf"/>
      <stop offset="1" stop-color="#052554"/>
    </linearGradient>
  </defs>
  <rect class="cls-5" width="566.93" height="566.93"/>
  <g>
    <g>
      <path class="cls-4" d="M262.68,367.79c-9.03,0-17.55-3.96-23.37-10.86l-9.14-10.83c-1.6-1.27-3.06-2.69-4.36-4.22l-15.41-18.26c-10.72-12.71-9.22-31.91,3.34-42.81l3.42-2.96c-2.47-1.63-4.81-3.51-6.98-5.61-.1-.07-.19-.16-.28-.25l-.1-.11c-1.25-1.23-2.47-2.58-3.63-4.01l-4.68-5.17-1.78,26.02c-.87,12.7-9.66,23.65-21.88,27.24l-93.19,27.4c-2.81.83-5.72,1.25-8.64,1.25-7.54,0-14.8-2.84-20.46-8.01-.09-.07-.17-.14-.25-.23-1.29-1.2-2.5-2.55-3.6-4.01l-10.4-11.57c-1.31-1.27-2.33-2.41-3.2-3.57-3.84-5.11-5.95-11.14-6.12-17.46l-2.92-113.85c-.36-14.21,8.97-26.68,22.71-30.33l103.91-27.61c2.58-.69,5.23-1.03,7.88-1.03,7.6,0,14.9,2.85,20.58,8.04.15.09.28.21.4.34l.2.23.28.27c.29.27.59.55.86.84.68.73,1.35,1.54,2.05,2.47l9.64,10.81c.63.56,1.23,1.16,1.8,1.77.77.82,1.53,1.76,2.34,2.88l.04.04c.12.13.22.28.29.43,4,5.73,5.95,12.68,5.47,19.59l-.38,5.53c7.05-3.84,14.91-5.86,22.96-5.86,12.44,0,24.25,4.76,33.28,13.41.12.08.23.18.32.29l.19.21c1.3,1.28,2.55,2.67,3.71,4.11l12.22,13.51c.07.07.13.15.18.23,2.92,3.37,5.33,7.06,7.2,11.01l2.88-2.5c5.56-4.82,12.67-7.48,20.03-7.48,8.74,0,17.07,3.75,22.87,10.28l12.14,13.68.25.25c.38.37.75.73,1.1,1.13l3.73,4.21c-.56-3.24-.6-6.56-.09-9.81l11.6-73.82c2.35-14.97,15.05-25.83,30.19-25.83,2.53,0,5.07.32,7.53.94l16.63,4.22c8.23,2.09,15.28,7.56,19.33,15.02.12.22.24.45.36.68l1.74-5.16c4.19-12.45,15.83-20.81,28.97-20.81,2.31,0,4.63.26,6.89.79l32.17,7.43c6.62,1.53,12.62,5.29,16.91,10.6,0,0,12.98,14.44,12.98,14.44.09.1.16.2.23.31,2.05,2.46,3.68,5.17,4.84,8.04,3.73,9.24,2.72,19.74-2.7,28.1l-55.85,86.07c-2.93,4.51-6.92,8.12-11.65,10.54,4.58,6.46,7.08,14.23,7.08,22.17,0,21.15-17.21,38.36-38.36,38.36-14.41,0-27.81-8.31-34.29-21.22-.07-.04-.14-.09-.21-.14-6.65,4.65-14.43,7.1-22.59,7.1-10.37,0-20.14-3.96-27.51-11.16-1.07-1.05-2.12-2.21-3.13-3.46l-11.37-12.61-56.46,52.22c-5.67,5.24-13.04,8.13-20.75,8.13Z"/>
      <path class="cls-7" d="M466.47,124.09c2.16,0,4.33.25,6.44.73l32.17,7.43c6.34,1.46,11.9,5.04,15.87,9.99h0s12.1,13.45,12.1,13.45c.15.16.29.32.43.47l.46.51h-.02c1.95,2.31,3.56,4.9,4.72,7.76,3.49,8.63,2.55,18.45-2.52,26.26l-55.85,86.07c-3.22,4.96-7.8,8.69-13.07,10.86,5.11,6.26,8.18,14.25,8.18,22.94,0,20.05-16.31,36.36-36.36,36.36-14.4,0-26.86-8.43-32.74-20.61-.61-.38-1.21-.78-1.79-1.19-6.26,4.71-14.07,7.54-22.55,7.54-10.19,0-19.42-4.05-26.12-10.59h0s-.01-.01-.01-.01c-1.07-1.04-2.06-2.15-2.99-3.32l-11.72-12.99c-.35-.38-.7-.77-1.04-1.16l-57.95,53.6c-5.3,4.9-12.18,7.6-19.4,7.6-8.44,0-16.4-3.7-21.84-10.15l-9.27-10.98c-1.53-1.2-2.95-2.55-4.23-4.07l-15.41-18.26c-10.02-11.88-8.62-29.82,3.12-40.01l5.47-4.74c-3.33-1.93-6.39-4.28-9.13-6.95h-.01s-.14-.14-.14-.14c-1.26-1.24-2.44-2.55-3.56-3.93l-7.87-8.69-2.1,30.71c-.81,11.87-9.03,22.11-20.45,25.46l-93.19,27.4c-2.63.77-5.35,1.17-8.08,1.17-7.37,0-14.14-2.9-19.23-7.6h0s-.04-.04-.04-.04c-1.28-1.18-2.44-2.48-3.48-3.87l-10.51-11.68c-1.09-1.06-2.13-2.17-3.05-3.39-3.45-4.59-5.56-10.22-5.72-16.31l-2.92-113.85c-.34-13.28,8.39-24.93,21.22-28.35l103.91-27.61c2.41-.64,4.89-.97,7.36-.97,7.22,0,14.2,2.82,19.47,7.74v-.03s.27.29.27.29c.37.36.76.7,1.12,1.08.7.75,1.35,1.55,1.96,2.37l9.78,10.96c.61.54,1.2,1.12,1.76,1.72.82.87,1.55,1.81,2.24,2.77l.11.12h-.02c3.82,5.36,5.73,11.93,5.28,18.55l-.64,9.35c7.26-4.75,15.91-7.54,25.22-7.54,12.48,0,23.79,4.99,32.11,13.06v-.02s.24.25.24.25c1.29,1.27,2.5,2.61,3.64,4.02l11.43,12.64c.17.18.33.36.49.54l.34.37h0c3.4,3.89,6.17,8.33,8.13,13.19l4.94-4.28c5.2-4.51,11.84-6.99,18.72-6.99,8.16,0,15.96,3.5,21.37,9.61l12.18,13.73c.44.44.89.86,1.31,1.32l10.55,11.89c-3.1-5.46-4.46-11.93-3.43-18.51l11.6-73.82c2.2-13.99,14.06-24.14,28.21-24.14,2.37,0,4.73.3,7.04.88l16.63,4.22c7.69,1.95,14.28,7.07,18.07,14.04.59,1.09,1.08,2.22,1.52,3.37.42.22.83.45,1.24.69l2.98-8.85c3.92-11.64,14.8-19.45,27.07-19.45M466.47,120.09c-13.99,0-26.39,8.91-30.86,22.18l-.36,1.06c-4.45-6.36-11.1-10.99-18.68-12.91l-16.63-4.22c-2.63-.67-5.32-1-8.02-1-16.13,0-29.66,11.57-32.17,27.52l-11.6,73.82c-.23,1.45-.35,2.9-.38,4.36-.34-.37-.68-.7-.99-1l-.21-.2-12.09-13.62c-6.18-6.96-15.06-10.95-24.37-10.95-7.84,0-15.42,2.83-21.34,7.97l-.95.82c-1.73-3.21-3.82-6.24-6.25-9.05-.08-.12-.17-.23-.27-.34l-.34-.37c-.18-.2-.35-.39-.52-.57l-11.32-12.53c-1.19-1.47-2.46-2.88-3.79-4.19l-.15-.17c-.16-.18-.34-.34-.53-.49-9.39-8.95-21.65-13.87-34.57-13.87-7.19,0-14.24,1.54-20.73,4.51l.14-2.04c.5-7.34-1.55-14.7-5.77-20.79-.13-.23-.29-.46-.47-.66-.84-1.15-1.64-2.13-2.44-2.99-.58-.63-1.2-1.24-1.84-1.82l-9.51-10.67c-.72-.96-1.42-1.8-2.14-2.57-.34-.36-.67-.67-.96-.94-.07-.06-.14-.13-.21-.19l-.15-.17c-.2-.22-.42-.42-.66-.59-6.03-5.46-13.76-8.46-21.81-8.46-2.82,0-5.65.37-8.39,1.1l-103.91,27.61c-14.63,3.89-24.58,17.18-24.2,32.31l2.92,113.85c.17,6.74,2.43,13.17,6.52,18.61.93,1.24,2,2.43,3.36,3.76l10.3,11.46c1.14,1.5,2.4,2.9,3.74,4.15.12.12.24.23.37.34,6.02,5.47,13.74,8.48,21.75,8.48,3.11,0,6.21-.45,9.21-1.33l93.19-27.4c13.02-3.83,22.38-15.49,23.31-29.03l1.46-21.33,1.48,1.64c1.19,1.46,2.43,2.84,3.71,4.1l.06.07c.14.15.29.3.45.43,1.6,1.54,3.29,2.96,5.04,4.26l-1.48,1.28c-13.38,11.61-14.98,32.07-3.55,45.61l15.41,18.26c1.33,1.58,2.84,3.05,4.48,4.37l9.01,10.68c6.2,7.35,15.28,11.57,24.9,11.57,8.22,0,16.07-3.08,22.11-8.66l54.97-50.85,9.98,11.06c1.03,1.28,2.1,2.47,3.19,3.53.02.02.04.04.06.06,7.75,7.57,18.02,11.73,28.91,11.73,7.86,0,15.38-2.16,21.96-6.28,7.12,12.56,20.63,20.54,35.12,20.54,22.25,0,40.36-18.1,40.36-40.36,0-7.6-2.18-15.07-6.21-21.48,4.19-2.53,7.76-5.98,10.46-10.15l55.85-86.07c5.78-8.9,6.85-20.09,2.88-29.93-1.22-3.03-2.93-5.88-5.08-8.48-.11-.16-.22-.31-.35-.45l-.46-.51-.07-.08c-.13-.14-.25-.28-.38-.42l-12.04-13.39c-4.56-5.63-10.94-9.62-17.98-11.25l-32.17-7.43c-2.41-.56-4.87-.84-7.34-.84h0Z"/>
    </g>
    <g>
      <g>
        <path class="cls-10" d="M247.57,333.8c-3.73,0-7.25-1.63-9.65-4.48l-15.41-18.26c-4.43-5.25-3.81-13.17,1.38-17.67l76.34-66.22c2.29-1.99,5.23-3.09,8.26-3.09,3.61,0,7.05,1.55,9.44,4.24l13.71,15.44c4.52,5.1,4.13,13.01-.87,17.64l-74.64,69.04c-2.34,2.16-5.38,3.36-8.56,3.36h0Z"/>
        <path class="cls-5" d="M308.5,226.11c2.93,0,5.84,1.21,7.93,3.56l13.71,15.44c3.83,4.31,3.5,10.9-.73,14.81l-74.64,69.04c-2.04,1.89-4.62,2.82-7.19,2.82-3.01,0-6-1.27-8.1-3.76l-15.41-18.26c-3.74-4.43-3.22-11.04,1.16-14.83l76.34-66.22c2-1.74,4.48-2.59,6.94-2.59M308.5,222.06c-3.52,0-6.93,1.27-9.59,3.58l-76.34,66.22c-6.02,5.22-6.73,14.42-1.6,20.51l15.41,18.26c2.79,3.31,6.87,5.2,11.2,5.2,3.69,0,7.22-1.38,9.94-3.89l74.64-69.04c5.81-5.37,6.26-14.56,1.01-20.47l-13.71-15.44c-2.78-3.13-6.77-4.92-10.96-4.92h0Z"/>
      </g>
      <g>
        <path class="cls-1" d="M228.48,251.8c-16.68,0-30.25-13.57-30.25-30.25s13.57-30.25,30.25-30.25,30.25,13.57,30.25,30.25-13.57,30.25-30.25,30.25Z"/>
        <path class="cls-5" d="M228.48,193.32c15.59,0,28.23,12.64,28.23,28.23s-12.64,28.23-28.23,28.23-28.23-12.64-28.23-28.23,12.64-28.23,28.23-28.23M228.48,189.27c-17.8,0-32.28,14.48-32.28,32.28s14.48,32.28,32.28,32.28,32.28-14.48,32.28-32.28-14.48-32.28-32.28-32.28h0Z"/>
      </g>
      <g>
        <path class="cls-3" d="M366.8,300.69c-11.65,0-21.13-9.13-21.13-20.36s9.48-20.36,21.13-20.36,21.13,9.13,21.13,20.36-9.48,20.36-21.13,20.36Z"/>
        <path class="cls-5" d="M366.8,261.99c10.55,0,19.11,8.21,19.11,18.33s-8.56,18.33-19.11,18.33-19.11-8.21-19.11-18.33,8.56-18.33,19.11-18.33M366.8,257.95c-12.77,0-23.16,10.04-23.16,22.38s10.39,22.38,23.16,22.38,23.16-10.04,23.16-22.38-10.39-22.38-23.16-22.38h0Z"/>
      </g>
      <g>
        <path class="cls-9" d="M423.88,314.94c-11.25,0-20.41-9.15-20.41-20.41s9.15-20.41,20.41-20.41,20.41,9.15,20.41,20.41-9.16,20.41-20.41,20.41Z"/>
        <path class="cls-5" d="M423.88,276.16c10.15,0,18.38,8.23,18.38,18.38s-8.23,18.38-18.38,18.38-18.38-8.23-18.38-18.38,8.23-18.38,18.38-18.38M423.88,272.11c-12.37,0-22.43,10.06-22.43,22.43s10.06,22.43,22.43,22.43,22.43-10.06,22.43-22.43-10.06-22.43-22.43-22.43h0Z"/>
      </g>
      <g>
        <path class="cls-2" d="M383.02,244.5c-1.21,0-2.41-.17-3.58-.52l-4.3-1.27c-6.05-1.79-9.87-7.83-8.89-14.06l11.6-73.82c.97-6.18,6.21-10.66,12.45-10.66,1.04,0,2.09.13,3.12.39l16.63,4.22c3.4.86,6.31,3.12,7.98,6.2,1.67,3.08,1.99,6.75.87,10.07l-23.92,70.87c-1.73,5.14-6.54,8.59-11.95,8.59h0Z"/>
        <path class="cls-5" d="M390.29,146.19c.86,0,1.74.11,2.62.33l16.63,4.22c5.98,1.52,9.41,7.81,7.43,13.66l-23.92,70.87c-1.49,4.41-5.6,7.21-10.03,7.21-.99,0-2-.14-3-.44l-4.3-1.27c-5.1-1.51-8.29-6.55-7.47-11.8l11.6-73.82c.83-5.27,5.37-8.95,10.45-8.95M390.29,142.14c-7.25,0-13.33,5.2-14.46,12.38l-11.6,73.82c-1.14,7.23,3.3,14.24,10.32,16.32l4.3,1.27c1.35.4,2.75.6,4.15.6,6.29,0,11.86-4,13.87-9.96l23.92-70.87c1.3-3.85.93-8.11-1.01-11.68s-5.32-6.19-9.26-7.19l-16.63-4.22c-1.19-.3-2.4-.45-3.61-.45h0Z"/>
      </g>
      <g>
        <path class="cls-8" d="M441.17,257.8c-1.3,0-2.58-.2-3.82-.59l-7.05-2.24c-3.25-1.03-5.89-3.28-7.43-6.32-1.54-3.04-1.79-6.5-.7-9.73l30.74-91.26c1.73-5.14,6.54-8.59,11.95-8.59.95,0,1.91.11,2.85.33l32.17,7.43c4.07.94,7.3,3.7,8.86,7.57,1.56,3.87,1.16,8.1-1.11,11.6l-55.85,86.07c-2.34,3.6-6.29,5.75-10.59,5.75h0Z"/>
        <path class="cls-5" d="M464.85,141.08c.79,0,1.59.09,2.39.27l32.17,7.43c7.16,1.65,10.5,9.92,6.5,16.09l-55.85,86.07c-1.99,3.07-5.37,4.83-8.89,4.83-1.07,0-2.15-.16-3.21-.5l-7.05-2.24c-5.64-1.79-8.72-7.87-6.83-13.48l30.74-91.26c1.48-4.39,5.58-7.21,10.03-7.21M464.85,137.03c-6.29,0-11.86,4.01-13.87,9.97l-30.74,91.26c-1.26,3.75-.97,7.76.82,11.3,1.79,3.53,4.85,6.14,8.63,7.34l7.05,2.24c1.44.46,2.93.69,4.43.69,4.98,0,9.57-2.49,12.29-6.67l55.85-86.07c2.6-4,3.08-9.03,1.29-13.46-1.79-4.42-5.63-7.71-10.28-8.78l-32.17-7.43c-1.08-.25-2.2-.38-3.3-.38h0Z"/>
      </g>
      <g>
        <path class="cls-5" d="M123.79,188.24c5.61,0,10.45,4.49,10.57,10.38l.93,45.61c.1,4.76-3,9-7.56,10.37l-33.16,9.9c-1.02.31-2.04.45-3.05.45-5.49,0-10.33-4.32-10.57-10.16l-1.98-47.56c-.21-5.09,3.23-9.61,8.19-10.76l34.21-7.95c.81-.19,1.62-.28,2.42-.28M123.79,184.19c-1.12,0-2.24.13-3.34.38l-34.21,7.95c-6.85,1.59-11.61,7.85-11.32,14.87l1.98,47.56c.33,7.87,6.75,14.04,14.62,14.04,1.42,0,2.83-.21,4.21-.62l33.16-9.9c6.29-1.88,10.59-7.77,10.45-14.33l-.93-45.61c-.16-7.91-6.72-14.35-14.62-14.35h0Z"/>
        <g>
          <path class="cls-6" d="M60.9,310.62c-6.77,0-12.42-5.52-12.6-12.3l-2.92-113.85c-.15-5.86,3.7-11.01,9.37-12.52l103.91-27.61c1.07-.29,2.17-.43,3.27-.43,3.46,0,6.82,1.47,9.21,4.02,2.4,2.57,3.6,5.94,3.35,9.46l-7.8,114.06c-.36,5.24-3.99,9.76-9.03,11.25l-93.19,27.4c-1.17.34-2.37.52-3.58.52h0ZM123.79,190.26c-.65,0-1.31.08-1.96.23l-34.21,7.95c-4.01.93-6.79,4.59-6.62,8.7l1.98,47.56c.19,4.61,3.95,8.22,8.55,8.22.83,0,1.66-.12,2.47-.36l33.16-9.9c3.68-1.1,6.19-4.55,6.12-8.39l-.93-45.61c-.09-4.63-3.93-8.4-8.55-8.4Z"/>
          <path class="cls-5" d="M161.93,145.93c5.93,0,10.97,5.04,10.54,11.32l-7.8,114.06c-.3,4.42-3.33,8.19-7.58,9.44l-93.19,27.4c-1.01.3-2.02.44-3.01.44-5.55,0-10.42-4.42-10.57-10.33l-2.92-113.85c-.13-4.9,3.13-9.25,7.87-10.51l103.91-27.61c.93-.25,1.85-.36,2.75-.36M91.53,264.95c1,0,2.03-.14,3.05-.45l33.16-9.9c4.56-1.36,7.66-5.6,7.56-10.37l-.93-45.61c-.12-5.89-4.97-10.38-10.57-10.38-.8,0-1.61.09-2.42.28l-34.21,7.95c-4.96,1.15-8.4,5.67-8.19,10.76l1.98,47.56c.24,5.84,5.08,10.16,10.57,10.16M161.93,141.88c-1.27,0-2.54.17-3.79.5l-103.91,27.61c-6.58,1.75-11.05,7.72-10.88,14.53l2.92,113.85c.2,7.87,6.76,14.27,14.62,14.27,1.4,0,2.79-.2,4.15-.6l93.19-27.4c5.85-1.72,10.06-6.97,10.48-13.05l7.8-114.06c.28-4.09-1.1-7.99-3.9-10.98-2.77-2.97-6.67-4.67-10.69-4.67h0ZM91.53,260.9c-3.51,0-6.38-2.76-6.52-6.28l-1.98-47.56c-.13-3.14,2-5.94,5.06-6.65l34.21-7.95c.5-.12,1-.17,1.5-.17,3.52,0,6.45,2.88,6.52,6.42l.93,45.61c.06,2.93-1.86,5.57-4.67,6.4l-33.16,9.9c-.62.19-1.26.28-1.89.28h0Z"/>
        </g>
      </g>
    </g>
  </g>
  <g>
    <path class="cls-4" d="M104.11,436.84c-.12-2.72-.18-5.72-.18-9s.06-6.52.18-10.08c.12-3.56.3-7.17.54-10.83.24-3.66.56-7.23.96-10.71-.64.16-1.25.31-1.83.45-.58.14-1.11.29-1.59.45l-3.06-9.54c9.68-2.28,17.74-3.42,24.18-3.42,13.08,0,19.62,4.98,19.62,14.94,0,4.68-1.56,8.39-4.68,11.13-3.12,2.74-7.7,4.47-13.74,5.19,3.64,3.08,7.31,5.61,11.01,7.59,3.7,1.98,7.45,3.65,11.25,5.01l-6.6,8.82c-2.12-.76-4.34-1.82-6.66-3.18-2.32-1.36-4.62-2.86-6.9-4.5-2.28-1.64-4.45-3.3-6.51-4.98-2.06-1.68-3.89-3.24-5.49-4.68-.04,2.76-.07,5.55-.09,8.37-.02,2.82-.03,5.73-.03,8.73l-.36.36c-1.52,0-3.15,0-4.89.03-1.74.02-3.31.09-4.71.21l-.42-.36ZM122.77,393.7c-1.12,0-2.28.05-3.48.15-1.2.1-2.4.23-3.6.39-.16,2.24-.3,4.45-.42,6.63-.12,2.18-.22,4.35-.3,6.51,1.76-.04,3.67-.15,5.73-.33,2.06-.18,4.01-.54,5.85-1.08,1.84-.54,3.35-1.33,4.53-2.37,1.18-1.04,1.77-2.42,1.77-4.14,0-2-.82-3.46-2.46-4.38-1.64-.92-4.18-1.38-7.62-1.38Z"/>
    <path class="cls-4" d="M177.01,436.72c-3.76,0-7.18-.69-10.26-2.07-3.08-1.38-5.74-3.29-7.98-5.73-2.24-2.44-3.96-5.22-5.16-8.34-1.2-3.12-1.8-6.42-1.8-9.9,0-3.2.48-6.35,1.44-9.45s2.42-5.92,4.38-8.46c1.96-2.54,4.45-4.57,7.47-6.09,3.02-1.52,6.59-2.28,10.71-2.28s8,.73,11.16,2.19c3.16,1.46,5.76,3.41,7.8,5.85,2.04,2.44,3.56,5.2,4.56,8.28,1,3.08,1.5,6.24,1.5,9.48,0,3.88-.58,7.44-1.74,10.68-1.16,3.24-2.8,6.05-4.92,8.43-2.12,2.38-4.64,4.21-7.56,5.49-2.92,1.28-6.12,1.92-9.6,1.92ZM177.01,426.7c2.4,0,4.62-.59,6.66-1.77s3.68-3.03,4.92-5.55c1.24-2.52,1.86-5.8,1.86-9.84,0-3.48-.68-6.34-2.04-8.58-1.36-2.24-3.12-3.9-5.28-4.98-2.16-1.08-4.42-1.62-6.78-1.62-2.68,0-4.94.48-6.78,1.44s-3.32,2.25-4.44,3.87c-1.12,1.62-1.92,3.43-2.4,5.43s-.72,4.06-.72,6.18.4,4.05,1.2,5.91c.8,1.86,1.89,3.5,3.27,4.92s2.97,2.54,4.77,3.36c1.8.82,3.72,1.23,5.76,1.23Z"/>
    <path class="cls-4" d="M208.15,437.08c0-6.24.09-11.87.27-16.89.18-5.02.42-9.6.72-13.74.3-4.14.64-8,1.02-11.58.38-3.58.75-7.01,1.11-10.29l10.32.42c-.16,1.24-.34,2.58-.54,4.02,1.36,1.84,2.85,3.94,4.47,6.3,1.62,2.36,3.28,4.85,4.98,7.47,1.7,2.62,3.37,5.24,5.01,7.86,1.64,2.62,3.2,5.12,4.68,7.5,1.48,2.38,2.78,4.51,3.9,6.39.28-2.76.42-6.64.42-11.64,0-2.56-.04-5.2-.12-7.92-.08-2.72-.18-5.33-.3-7.83-.12-2.5-.28-4.74-.48-6.72-.2-1.98-.42-3.53-.66-4.65l11.28-1.38c.08,1.96.13,4.53.15,7.71.02,3.18.03,6.55.03,10.11,0,3.16-.02,6.33-.06,9.51-.04,3.18-.12,6.11-.24,8.79-.12,2.68-.3,4.9-.54,6.66-.44,3.44-1.32,5.98-2.64,7.62-1.32,1.64-3.18,2.46-5.58,2.46-1.96,0-3.75-.68-5.37-2.04s-3.37-3.6-5.25-6.72c-1.28-2.16-2.77-4.65-4.47-7.47-1.7-2.82-3.46-5.71-5.28-8.67-1.82-2.96-3.57-5.78-5.25-8.46-.32,4.68-.56,9.35-.72,14.01-.16,4.66-.24,8.87-.24,12.63v3.39c0,1.06.02,2.05.06,2.97l-10.68.18Z"/>
    <path class="cls-4" d="M261.61,437.38c-.04-.6-.08-1.59-.12-2.97-.04-1.38-.08-3.03-.12-4.95-.04-1.92-.06-3.99-.06-6.21v-6.69c0-2.48,0-4.84.03-7.08.02-2.24.04-4.18.06-5.82.02-1.64.03-2.82.03-3.54l10.14-.18c-.08,1.12-.14,2.48-.18,4.08,1.04-1.4,2.24-2.5,3.6-3.3,1.36-.8,2.92-1.2,4.68-1.2,2.12,0,3.87.62,5.25,1.86,1.38,1.24,2.51,2.86,3.39,4.86,2.88-4.48,6.42-6.72,10.62-6.72,2.36,0,4.31.51,5.85,1.53,1.54,1.02,2.75,2.39,3.63,4.11.88,1.72,1.53,3.66,1.95,5.82s.69,4.38.81,6.66c.12,2.28.18,4.48.18,6.6,0,2.52-.04,4.82-.12,6.9-.08,2.08-.1,4.06-.06,5.94h-10.38v-3.63c0-1.46,0-2.94.03-4.44.02-1.5.03-2.8.03-3.9v-1.95c0-2.4-.06-4.66-.18-6.78-.12-2.12-.42-3.84-.9-5.16-.48-1.32-1.26-1.98-2.34-1.98s-1.96.5-2.76,1.5c-.8,1-1.51,2.3-2.13,3.9-.62,1.6-1.15,3.3-1.59,5.1.08,1.56.14,3.11.18,4.65.04,1.54.06,3.03.06,4.47,0,1.64,0,3.07-.03,4.29-.02,1.22-.03,2.53-.03,3.93h-10.08c0-3.24-.02-6.1-.06-8.58-.04-2.48-.12-4.88-.24-7.2-.2-4.16-.63-7.21-1.29-9.15-.66-1.94-1.57-2.91-2.73-2.91-1.28,0-2.36.77-3.24,2.31-.88,1.54-1.6,3.41-2.16,5.61.04,3.2.12,6.54.24,10.02.12,3.48.28,6.84.48,10.08l-10.44.12Z"/>
    <path class="cls-4" d="M331.63,437.44c-3,0-5.72-.77-8.16-2.31-2.44-1.54-4.37-3.62-5.79-6.24-1.42-2.62-2.13-5.55-2.13-8.79,0-3.04.56-5.79,1.68-8.25,1.12-2.46,2.65-4.57,4.59-6.33,1.94-1.76,4.15-3.11,6.63-4.05,2.48-.94,5.08-1.41,7.8-1.41,2.28,0,4.52.32,6.72.96.16-.84.3-1.68.42-2.52l10.26,1.74c-.28.76-.56,1.9-.84,3.42-.28,1.52-.51,3.22-.69,5.1-.18,1.88-.33,3.76-.45,5.64-.12,1.88-.18,3.58-.18,5.1,0,1.24.09,2.45.27,3.63.18,1.18.57,2.14,1.17,2.88.6.74,1.52,1.11,2.76,1.11h.84l-1.5,10.44c-2.64,0-4.82-.45-6.54-1.35-1.72-.9-3.1-2.11-4.14-3.63-1.72,1.92-3.68,3.21-5.88,3.87-2.2.66-4.48.99-6.84.99ZM325.39,421.3c.2,1.92.99,3.45,2.37,4.59,1.38,1.14,3.13,1.71,5.25,1.71s3.74-.55,5.1-1.65c1.36-1.1,2.48-2.61,3.36-4.53-.04-.64-.06-1.3-.06-1.98,0-1.4.04-2.84.12-4.32.08-1.48.18-2.94.3-4.38-1.68-.64-3.44-.96-5.28-.96-2.16,0-4.09.43-5.79,1.29-1.7.86-3.03,2.05-3.99,3.57s-1.44,3.28-1.44,5.28v.72c0,.24.02.46.06.66Z"/>
    <path class="cls-4" d="M360.79,437.02c-.12-3.52-.21-6.78-.27-9.78-.06-3-.09-5.96-.09-8.88s.03-5.85.09-8.79c.06-2.94.17-6.09.33-9.45h10.14c-.16,1.8-.3,3.62-.42,5.46,1.36-1.72,2.98-3.15,4.86-4.29,1.88-1.14,4.1-1.71,6.66-1.71s4.59.42,6.21,1.26c1.62.84,2.9,2,3.84,3.48.94,1.48,1.62,3.17,2.04,5.07s.69,3.94.81,6.12c.12,2.18.18,4.37.18,6.57,0,2.4-.04,4.7-.12,6.9-.08,2.2-.16,4.04-.24,5.52-.08,1.48-.14,2.36-.18,2.64h-10.08c.08-1.64.16-3.39.24-5.25.08-1.86.16-3.7.24-5.52.08-1.82.12-3.47.12-4.95,0-8.52-1.38-12.78-4.14-12.78-2.28,0-4.35.99-6.21,2.97-1.86,1.98-3.41,4.47-4.65,7.47v1.2c0,1.92,0,3.91.03,5.97.02,2.06.06,4.02.12,5.88.06,1.86.11,3.47.15,4.83l-9.66.06Z"/>
    <path class="cls-4" d="M400.63,436.9c-.12-2.48-.2-5.13-.24-7.95s-.06-5.65-.06-8.49c0-3.72.04-7.34.12-10.86.08-3.52.18-6.72.3-9.6l10.32-.06c-.16,1.84-.26,4.11-.3,6.81s-.06,5.53-.06,8.49.02,5.8.06,8.64c.04,2.84.09,5.41.15,7.71s.11,4.07.15,5.31h-10.44ZM400.87,393.94c0-.36-.01-.73-.03-1.11-.02-.38-.03-.81-.03-1.29,0-1.28.04-2.64.12-4.08.08-1.44.16-2.66.24-3.66l10.68.18c-.12,1.36-.25,2.9-.39,4.62-.14,1.72-.23,3.5-.27,5.34h-10.32Z"/>
    <path class="cls-4" d="M431.95,437.44c-3,0-5.72-.77-8.16-2.31-2.44-1.54-4.37-3.62-5.79-6.24-1.42-2.62-2.13-5.55-2.13-8.79,0-3.04.56-5.79,1.68-8.25,1.12-2.46,2.65-4.57,4.59-6.33,1.94-1.76,4.15-3.11,6.63-4.05,2.48-.94,5.08-1.41,7.8-1.41,2.28,0,4.52.32,6.72.96.16-.84.3-1.68.42-2.52l10.26,1.74c-.28.76-.56,1.9-.84,3.42-.28,1.52-.51,3.22-.69,5.1-.18,1.88-.33,3.76-.45,5.64-.12,1.88-.18,3.58-.18,5.1,0,1.24.09,2.45.27,3.63.18,1.18.57,2.14,1.17,2.88.6.74,1.52,1.11,2.76,1.11h.84l-1.5,10.44c-2.64,0-4.82-.45-6.54-1.35-1.72-.9-3.1-2.11-4.14-3.63-1.72,1.92-3.68,3.21-5.88,3.87-2.2.66-4.48.99-6.84.99ZM425.71,421.3c.2,1.92.99,3.45,2.37,4.59,1.38,1.14,3.13,1.71,5.25,1.71s3.74-.55,5.1-1.65c1.36-1.1,2.48-2.61,3.36-4.53-.04-.64-.06-1.3-.06-1.98,0-1.4.04-2.84.12-4.32.08-1.48.18-2.94.3-4.38-1.68-.64-3.44-.96-5.28-.96-2.16,0-4.09.43-5.79,1.29-1.7.86-3.03,2.05-3.99,3.57s-1.44,3.28-1.44,5.28v.72c0,.24.02.46.06.66Z"/>
    <path class="cls-4" d="M207.56,496.5c-.33-1.3-.69-2.63-1.08-4-.38-1.37-.72-2.57-1.02-3.6,3.7-2.07,6.93-4.3,9.68-6.7s5.02-4.78,6.8-7.15c1.78-2.37,3.12-4.52,4-6.45.88-1.93,1.33-3.45,1.33-4.55,0-1.27-.43-2.26-1.28-2.97-.85-.72-1.99-1.08-3.42-1.08-1.97,0-3.96.7-5.98,2.1-2.02,1.4-3.89,3.38-5.62,5.95l-5.25-6.3c1.5-1.8,3.09-3.42,4.77-4.85,1.68-1.43,3.49-2.58,5.43-3.42,1.93-.85,4-1.28,6.2-1.28,2.4,0,4.6.42,6.6,1.25,2,.83,3.6,2.08,4.8,3.75,1.2,1.67,1.8,3.73,1.8,6.2,0,2.33-.6,4.86-1.8,7.58-1.2,2.72-2.87,5.43-5,8.15-2.13,2.72-4.57,5.24-7.3,7.58,1.1-.03,2.22-.05,3.35-.05,2.2,0,4.22.12,6.05.38,1.83.25,3.73.62,5.7,1.12l-1.65,7.7c-1.63-.4-3.37-.73-5.2-1-1.83-.27-3.93-.4-6.3-.4-2.8,0-5.58.16-8.35.47-2.77.32-5.18.84-7.25,1.58Z"/>
    <path class="cls-4" d="M257.61,496.6c-2.53,0-4.8-.59-6.8-1.78-2-1.18-3.69-2.79-5.08-4.83-1.38-2.03-2.44-4.33-3.17-6.9-.73-2.57-1.1-5.23-1.1-8,0-3.3.46-6.41,1.38-9.33.92-2.92,2.24-5.53,3.98-7.83,1.73-2.3,3.82-4.2,6.25-5.7l.7,1.5c1.63-.83,3.4-1.25,5.3-1.25,2.73,0,5.12.59,7.17,1.78,2.05,1.18,3.75,2.78,5.1,4.8,1.35,2.02,2.37,4.28,3.05,6.78.68,2.5,1.02,5.08,1.02,7.75,0,3.97-.51,7.4-1.52,10.3-1.02,2.9-2.38,5.28-4.08,7.15-1.7,1.87-3.61,3.26-5.73,4.18-2.12.92-4.27,1.38-6.48,1.38ZM249.66,475.55c0,1.2.12,2.55.38,4.05s.69,2.92,1.32,4.27c.63,1.35,1.49,2.47,2.58,3.35,1.08.88,2.48,1.32,4.17,1.32,1.83,0,3.43-.62,4.8-1.88,1.37-1.25,2.44-2.99,3.23-5.22.78-2.23,1.17-4.82,1.17-7.75s-.44-5.34-1.33-7.22c-.88-1.88-1.98-3.28-3.3-4.2-1.32-.92-2.64-1.38-3.98-1.38-.7,0-1.37.2-2,.6-.63.4-1.13.93-1.5,1.6l-.7-1.5c-1.57,1.57-2.68,3.15-3.35,4.75-.67,1.6-1.08,3.17-1.25,4.72-.17,1.55-.25,3.04-.25,4.47Z"/>
    <path class="cls-4" d="M282.56,496.5c-.33-1.3-.69-2.63-1.08-4s-.72-2.57-1.02-3.6c3.7-2.07,6.92-4.3,9.67-6.7s5.02-4.78,6.8-7.15c1.78-2.37,3.12-4.52,4-6.45.88-1.93,1.32-3.45,1.32-4.55,0-1.27-.42-2.26-1.28-2.97-.85-.72-1.99-1.08-3.42-1.08-1.97,0-3.96.7-5.97,2.1-2.02,1.4-3.89,3.38-5.62,5.95l-5.25-6.3c1.5-1.8,3.09-3.42,4.77-4.85,1.68-1.43,3.49-2.58,5.43-3.42,1.93-.85,4-1.28,6.2-1.28,2.4,0,4.6.42,6.6,1.25,2,.83,3.6,2.08,4.8,3.75,1.2,1.67,1.8,3.73,1.8,6.2,0,2.33-.6,4.86-1.8,7.58-1.2,2.72-2.87,5.43-5,8.15-2.13,2.72-4.57,5.24-7.3,7.58,1.1-.03,2.21-.05,3.35-.05,2.2,0,4.22.12,6.05.38,1.83.25,3.73.62,5.7,1.12l-1.65,7.7c-1.63-.4-3.37-.73-5.2-1-1.83-.27-3.93-.4-6.3-.4-2.8,0-5.58.16-8.35.47-2.77.32-5.18.84-7.25,1.58Z"/>
    <path class="cls-4" d="M331.21,485.6c-1.7,0-3.42-.04-5.15-.12-1.73-.08-3.33-.34-4.78-.78-1.45-.43-2.61-1.15-3.47-2.15-.87-1-1.3-2.4-1.3-4.2,0-1.2.3-2.67.9-4.4.6-1.73,1.38-3.59,2.33-5.58.95-1.98,1.98-3.98,3.1-6,1.12-2.02,2.21-3.95,3.27-5.8,1.07-1.85,2-3.47,2.8-4.88l6.7,3.8c.03-1.03.05-2,.05-2.9l8.1.1c-.2,3.4-.41,7.23-.62,11.5-.22,4.27-.44,8.55-.67,12.85,1.4-.13,2.8-.32,4.2-.55,1.4-.23,2.78-.52,4.15-.85l.45,8.3c-1.6.23-3.17.45-4.73.65-1.55.2-3.06.37-4.52.5-.1,2.07-.2,4.06-.3,5.97-.1,1.92-.2,3.69-.3,5.33l-8.5-.2c.2-1.57.39-3.25.58-5.05.18-1.8.36-3.67.53-5.6-.97.03-1.9.05-2.8.05ZM328.36,477.6c.67.03,1.32.05,1.95.05h1.85c.8,0,1.6-.02,2.4-.05.27-3.83.48-7.63.65-11.4.17-3.77.3-7.17.4-10.2-.9,1.27-1.88,2.76-2.92,4.48s-2.08,3.49-3.08,5.32c-1,1.83-1.88,3.53-2.65,5.1-.63,1.33-1.15,2.42-1.55,3.27-.4.85-.6,1.51-.6,1.98s.27.81.8,1.02c.53.22,1.45.36,2.75.43Z"/>
  </g>
</svg>